HIERARCHY
ROOT Hips
{
	OFFSET 0.000000 0.000000 0.000000 
	CHANNELS 6 Xposition Yposition Zposition Zrotation Yrotation Xrotation
	JOINT LeftUpLeg
	{
		OFFSET 1.363060 -1.794630 0.839290 
		CHANNELS 3 Zrotation Yrotation Xrotation
		JOINT LeftLeg
		{
			OFFSET 2.448110 -6.726130 0.000000 
			CHANNELS 3 Zrotation Yrotation Xrotation
			JOINT LeftFoot
			{
				OFFSET 2.562200 -7.039590 0.000000 
				CHANNELS 3 Zrotation Yrotation Xrotation
				JOINT LeftToeBase
				{
					OFFSET 0.157640 -0.433110 2.322550 
					CHANNELS 3 Zrotation Yrotation Xrotation
					End Site
					{
						OFFSET 0.000000 0.000000 0.000000 
					}
				}
			}
		}
	}
	JOINT RightUpLeg
	{
		OFFSET -1.305520 -1.794630 0.839290 
		CHANNELS 3 Zrotation Yrotation Xrotation
		JOINT RightLeg
		{
			OFFSET -2.542530 -6.985550 0.000000 
			CHANNELS 3 Zrotation Yrotation Xrotation
			JOINT RightFoot
			{
				OFFSET -2.568260 -7.056230 0.000000 
				CHANNELS 3 Zrotation Yrotation Xrotation
				JOINT RightToeBase
				{
					OFFSET -0.164730 -0.452590 2.363150 
					CHANNELS 3 Zrotation Yrotation Xrotation
					End Site
					{
						OFFSET 0.000000 0.000000 0.000000 
					}
				}
			}
		}
	}
	JOINT Spine
	{
		OFFSET 0.028270 2.035590 -0.193380 
		CHANNELS 3 Zrotation Yrotation Xrotation
		JOINT Spine1
		{
			OFFSET 0.056720 2.048850 -0.042750 
			CHANNELS 3 Zrotation Yrotation Xrotation
			JOINT Neck1
			{
				OFFSET -0.054170 1.746240 0.172020 
				CHANNELS 3 Zrotation Yrotation Xrotation
				JOINT Head
				{
					OFFSET 0.104070 1.761360 -0.123970 
					CHANNELS 3 Zrotation Yrotation Xrotation
					End Site
					{
						OFFSET 0.000000 0.000000 0.000000 
					}
				}
			}
			JOINT LeftArm
			{
				OFFSET 3.362410 1.200890 -0.311210 
				CHANNELS 3 Zrotation Yrotation Xrotation
				JOINT LeftForeArm
				{
					OFFSET 4.983000 -0.000000 -0.000000 
					CHANNELS 3 Zrotation Yrotation Xrotation
					JOINT LeftHand
					{
						OFFSET 3.483560 -0.000000 -0.000000 
						CHANNELS 3 Zrotation Yrotation Xrotation
						JOINT LeftHandIndex1
						{
							OFFSET 0.715260 -0.000000 -0.000000 
							CHANNELS 3 Zrotation Yrotation Xrotation
							End Site
							{
								OFFSET 0.000000 0.000000 0.000000 
							}
						}
					}
				}
			}
			JOINT RightArm
			{
				OFFSET -3.136600 1.374050 -0.404650 
				CHANNELS 3 Zrotation Yrotation Xrotation
				JOINT RightForeArm
				{
					OFFSET -5.241900 -0.000000 -0.000000 
					CHANNELS 3 Zrotation Yrotation Xrotation
					JOINT RightHand
					{
						OFFSET -3.444170 -0.000000 -0.000000 
						CHANNELS 3 Zrotation Yrotation Xrotation
						JOINT RightHandIndex1
						{
							OFFSET -0.622530 -0.000000 -0.000000 
							CHANNELS 3 Zrotation Yrotation Xrotation
							End Site
							{
								OFFSET 0.000000 0.000000 0.000000 
							}
						}
					}
				}
			}
		}
	}
}
MOTION
Frames: 12
Frame Time: 0.041667
10.642004 17.728801 -0.599511 -176.936690 9.644310 -178.295741 -25.613754 -0.763912 -13.517190 1.144621 7.296012 23.468337 1.306313 5.922271 -21.942151 0.000100 0.060300 0.165800 36.179601 -8.793248 0.259102 -2.293116 -6.806731 24.124876 -0.774121 0.676374 -15.317973 -0.173200 -2.680800 7.391200 1.974283 -0.631046 -5.377917 -0.191371 0.482755 -10.431331 4.996222 19.827000 5.879240 -6.858300 10.348500 1.348200 -70.826693 22.825008 74.593726 28.117074 -34.733472 -10.978047 0.401348 -1.382045 -62.686158 -7.125000 0.000000 0.000000 75.431630 0.993252 18.244931 -11.092750 12.228240 -1.751700 -0.796495 -0.912173 27.736671 7.125000 0.000000 0.000000 
10.646492 17.714848 -0.649470 -176.866599 9.576563 -178.298286 -25.577974 -1.195728 -13.383069 1.212888 7.370647 23.720975 1.205901 5.521495 -20.897038 0.072800 1.741100 4.790800 36.164351 -8.899671 0.253866 -2.350307 -6.911959 24.463307 -0.774990 0.866214 -15.279380 -0.177800 -2.716100 7.489400 2.020885 -0.747425 -5.360718 -0.022423 0.450857 -10.400119 4.971179 20.024430 5.624050 -6.877700 10.389400 1.183100 -71.020757 22.575223 74.623506 28.225100 -34.834832 -11.048783 0.396403 -1.380529 -62.740979 -7.125000 0.000000 0.000000 75.278593 0.913629 17.859305 -11.167205 12.297843 -1.707880 -0.747949 -0.873206 28.630206 7.125000 0.000000 0.000000 
10.649517 17.684404 -0.701771 -176.810314 9.538163 -178.332518 -25.545259 -1.476795 -13.230397 1.303595 7.519204 24.191072 1.198313 5.129411 -20.674152 0.179800 2.731500 7.532200 36.109279 -9.117756 0.138768 -2.440333 -7.097744 25.047136 -0.791179 0.850783 -15.451830 -0.093500 -1.971500 5.427000 2.055631 -0.816275 -5.367612 0.105430 0.435608 -10.476593 4.956413 20.099731 5.562376 -6.919300 10.421500 1.119400 -71.137064 22.296117 74.664670 28.300523 -34.902103 -11.103500 0.395495 -1.383960 -62.738773 -7.125000 0.000000 0.000000 75.113598 0.563921 17.808413 -11.282792 12.448191 -1.708081 -0.749171 -0.833820 28.700714 7.125000 0.000000 0.000000 
10.656738 17.648008 -0.752316 -176.616783 9.531833 -178.388232 -25.356483 -1.326083 -13.095646 1.361957 7.635274 24.553823 1.199627 5.251518 -20.732812 0.081500 1.842000 5.069300 36.262972 -9.271253 0.102244 -2.521560 -7.297200 25.667827 -0.798279 0.383473 -15.673626 -0.006900 -0.534700 1.469300 2.013742 -0.591735 -5.322840 -0.114114 0.487546 -10.356792 4.967716 19.731706 5.970652 -6.922900 10.319000 1.559700 -70.619380 21.325592 75.414213 28.158938 -34.779232 -11.023436 0.408418 -1.387952 -62.567067 -7.125000 0.000000 0.000000 75.282166 0.601322 16.788862 -11.211995 12.395393 -1.738085 -0.825487 -0.844760 28.279875 7.125000 0.000000 0.000000 
10.665715 17.626151 -0.801300 -176.488930 9.589810 -178.396675 -25.178431 -0.947862 -13.165760 1.420305 7.774901 24.980067 1.214442 5.683301 -21.040294 0.011400 0.688100 1.890900 36.364716 -9.079217 0.015185 -2.629418 -7.508636 26.338343 -0.830885 0.494660 -15.960629 -0.005100 -0.460600 1.265700 2.111824 -0.813409 -5.356100 0.257970 0.439174 -10.584510 4.998398 20.055081 5.748924 -6.892700 10.442700 1.295600 -71.210927 21.298777 75.048252 28.097233 -34.718467 -11.006964 0.427376 -1.410467 -62.735068 -7.125000 0.000000 0.000000 75.017769 0.199644 16.907493 -11.072535 12.277032 -1.764096 -0.917069 -0.843295 28.279385 7.125000 0.000000 0.000000 
10.671960 17.613368 -0.855259 -176.380205 9.657836 -178.397595 -24.981353 -0.524544 -13.090527 1.436021 7.806913 25.087819 1.293958 5.547770 -21.676974 0.031600 1.148200 3.156500 36.296387 -8.918565 -0.279148 -2.824668 -7.827867 27.367514 -0.906110 1.567878 -16.372130 -0.067200 -1.672400 4.601200 2.154355 -0.863427 -5.328647 0.450124 0.438345 -10.513472 5.119009 20.193405 5.606114 -6.811500 10.470300 1.187500 -71.430719 20.809834 74.998703 28.225506 -34.837940 -11.100689 0.434341 -1.415481 -62.903884 -7.125000 0.000000 0.000000 74.894769 0.137254 16.540429 -10.949054 12.126460 -1.730435 -0.911984 -0.845145 28.741675 7.125000 0.000000 0.000000 
10.681815 17.594341 -0.910098 -175.861643 9.813110 -178.597403 -24.277248 0.214798 -12.856721 1.453491 7.795172 25.099054 1.296928 5.410313 -21.648029 0.000400 0.135100 0.371300 36.678618 -8.916099 -0.358268 -3.014749 -8.179639 28.506717 -0.958868 1.967372 -16.764443 -0.106100 -2.100200 5.782600 2.188626 -0.778059 -5.251460 0.372576 0.441941 -10.381921 5.206967 20.097176 5.805485 -6.773700 10.456900 1.402300 -71.390812 20.064240 75.066024 28.307245 -34.896233 -11.142346 0.420267 -1.410350 -63.036835 -7.125000 0.000000 0.000000 74.964433 0.363645 15.039259 -10.767402 11.875239 -1.630378 -0.875154 -0.821495 30.917917 7.125000 0.000000 0.000000 
10.675863 17.575606 -0.962106 -177.303951 9.794177 -178.652891 -25.919648 0.962064 -12.938981 1.449931 7.761369 25.032901 1.249503 5.185829 -21.126979 0.078500 -1.806900 -4.972200 34.844096 -9.222463 -1.312464 -3.287146 -8.568407 29.789472 -0.988658 2.272252 -17.038458 -0.055900 -1.525900 4.197000 2.051011 -0.964324 -5.288956 0.603107 0.393385 -10.423137 5.239806 20.116474 5.792780 -6.815500 10.470600 1.407400 -71.561096 19.615170 74.775718 28.164575 -34.754600 -11.038949 0.413323 -1.416301 -62.752669 -7.125000 0.000000 0.000000 75.091715 0.330962 13.463149 -10.612388 11.666946 -1.548029 -0.876765 -0.774734 33.677305 7.125000 0.000000 0.000000 
10.686401 17.548089 -1.022213 -177.679708 10.002100 -178.894646 -26.237034 1.677948 -12.603131 1.457709 7.716684 24.970255 1.255270 4.791382 -21.012109 0.139800 -2.409700 -6.639200 34.278453 -9.113797 -1.630598 -3.540365 -8.967482 31.128244 -1.018409 2.359208 -17.334631 -0.037500 -1.249700 3.436200 2.037847 -1.036679 -5.281970 0.844296 0.393730 -10.495080 5.344274 20.215236 5.683457 -6.799200 10.498200 1.301000 -71.913784 19.295996 74.296347 28.021064 -34.609889 -10.939848 0.413658 -1.426335 -62.403312 -7.125000 0.000000 0.000000 75.097962 0.033641 12.968485 -10.558486 11.588853 -1.515868 -0.866604 -0.759026 35.072413 7.125000 0.000000 0.000000 
10.705916 17.527208 -1.077832 -177.596360 10.333722 -179.128476 -26.024763 2.070093 -12.052240 1.428638 7.635080 24.778765 1.235182 5.042370 -20.918093 0.274800 -3.371600 -9.315200 34.373212 -8.617800 -1.861195 -3.808293 -9.405475 32.602466 -1.035978 2.170682 -17.583545 -0.041000 -1.306300 3.591900 2.045003 -0.968810 -5.223767 0.966133 0.424495 -10.407990 5.482206 20.144125 5.835666 -6.732300 10.490000 1.429500 -72.035236 18.667303 73.917231 28.047157 -34.626276 -10.959022 0.417550 -1.435360 -62.140196 -7.125000 0.000000 0.000000 75.182508 0.046456 12.206961 -10.288500 11.258106 -1.478980 -0.887650 -0.784219 35.557050 7.125000 0.000000 0.000000 
10.718504 17.512962 -1.126035 -177.920456 10.470301 -179.436252 -26.298841 2.441720 -11.662044 1.448633 7.643161 24.856977 1.264992 4.824183 -21.080507 0.376000 -3.938500 -10.903600 33.948311 -8.438366 -2.164786 -4.057778 -9.774791 33.877404 -1.048004 2.081606 -17.766239 -0.032600 -1.165700 3.204800 2.022606 -1.089571 -5.212887 1.139756 0.385113 -10.577795 5.513650 20.232642 5.819965 -6.736700 10.537600 1.409700 -72.166746 18.205452 73.607058 28.164367 -34.710576 -11.029222 0.412989 -1.437488 -62.361986 -7.125000 0.000000 0.000000 75.343077 0.096257 10.859803 -9.740071 10.606601 -1.425020 -0.962578 -0.823946 35.947237 7.125000 0.000000 0.000000 
10.726895 17.494129 -1.175701 -178.301229 10.432921 -179.672099 -26.650578 2.895633 -11.383263 1.479628 7.636779 24.895993 1.352132 3.799757 -21.449917 0.224900 -3.052900 -8.426000 33.389404 -8.521706 -2.563878 -4.313064 -10.126973 35.113650 -1.092793 2.403323 -18.132990 -0.016300 -0.823600 2.263500 2.011894 -1.328516 -5.222430 1.324488 0.297982 -10.745711 5.455918 20.435164 5.693405 -6.786200 10.621900 1.286600 -72.458281 17.901107 73.239196 28.269584 -34.774914 -11.075763 0.395883 -1.430838 -62.712336 -7.125000 0.000000 0.000000 75.430057 0.065492 9.683092 -9.337659 10.150197 -1.391265 -1.044798 -0.821498 37.122431 7.125000 0.000000 0.000000 
